/* XPM */
static char *a47467c8838a46b5f9602f1390b21bcaMbKwGWpjK7wrzXiV[] = {
/* columns rows colors chars-per-pixel */
"100 100 45 1 ",
"  c gray25",
". c gray26",
"X c #434343",
"o c #434444",
"O c #444545",
"+ c #464747",
"@ c #474949",
"# c #494B4B",
"$ c #4A4D4D",
"% c #4B4E4E",
"& c #4C4F4F",
"* c #4D5050",
"= c #4D5151",
"- c #4E5252",
"; c #505454",
": c #505555",
"> c #515656",
", c #525756",
"< c #535857",
"1 c #555B5A",
"2 c #555C5B",
"3 c #565C5B",
"4 c #575E5D",
"5 c #59605F",
"6 c #5A6261",
"7 c #5B6362",
"8 c #5C6463",
"9 c #5D6665",
"0 c #5E6766",
"q c #5F6866",
"w c #606A68",
"e c #626C6A",
"r c #646F6D",
"t c #65706E",
"y c #66716F",
"u c #677371",
"i c #697573",
"p c #6C7977",
"a c #6D7B79",
"s c #6E7C7A",
"d c #6F7D7B",
"f c #707D7B",
"g c #707E7C",
"h c #717F7D",
"j c #808080",
/* pixels */
"jjjjjjjjjjjjjjjjjjjjjjjjjjjjjjjjjjjjjjjjjjjjjjjjjjjjjjjjjjjjjjjjjjjjjjjjjjjjjjjjjjjjjjjjjjjjjjjjjjjj",
"jjjjjjjjjjjjjjjjjjjjjjjjjjjjjjjjjjjjjjjjjjjjjjjjjjjjjjjjjjjjjjjjjjjjjjjjjjjjjjjjjjjjjjjjjjjjjjjjjjjj",
"jjjjjjjjjjjjjjjjjjjjjjjjjjjjjjjjjjjjjjjjjjjjjjjjjjjjjjjjjjjjjjjjjjjjjjjjjjjjjjjjjjjjjjjjjjjjjjjjjjjj",
"jjjjjjjjjjjjjjjjjjjjjjjjjjjjjjjjjjjjjjjjjjjjjjjjjjjjjjjjjjjjjjjjjjjjjjjjjjjjjjjjjjjjjjjjjjjjjjjjjjjj",
"jjjjjjjjjjjjjjjjjjjjjjjjjjjjjjjjjjjjjjjjjjjjjjjjjjjjjjjjjjjjjjjjjjjjjjjjjjjjjjjjjjjjjjjjjjjjjjjjjjjj",
"jjjjjjjjjjjjjjjjjjjjjjjjjjjjjjjjjjjjjjjjjjjjjjjjjjjjjjjjjjjjjjjjjjjjjjjjjjjjjjjjjjjjjjjjjjjjjjjjjjjj",
"jjjjjjjjjjjjjjjjjjjjjjjjjjjjjjjjjjjjjjjjjjjjjjjjjjjjjjjjjjjjjjjjjjjjjjjjjjjjjjjjjjjjjjjjjjjjjjjjjjjj",
"jjjjjjjjjjjjjjjjjjjjjjjjjjjjjjjjjjjjjjjjjjjjjjjjjjjjjjjjjjjjjjjjjjjjjjjjjjjjjjjjjjjjjjjjjjjjjjjjjjjj",
"jjjjjjjjhhhhhhhha%                                                                Xyhhhhhhhjjjjjjjjj",
"jjjjjjjjhhhhhhhhhs%                                                               yhhhhhhhhjjjjjjjjj",
"jjjjjjjjhhhhhhhhhhf;                                                             yhhhhhhhhhjjjjjjjjj",
"jjjjjjjjhhhhhhhhhhhh;                                                           qhhhhhhhhhhjjjjjjjjj",
"jjjjjjjjhhhhhhhhhhhhh1                                                         whhhhhhhhhhhjjjjjjjjj",
"jjjjjjjjhhhhhhhhhhhhhh3                                                       whhhhhhhhhhhhjjjjjjjjj",
"jjjjjjjjhhhhhhhhhhhhhhh8                                                     whhhhhhhhhhhhhjjjjjjjjj",
"jjjjjjjjhhhhhhhhhhhhhhhh9                                                   whhhhhhhhhhhhhhjjjjjjjjj",
"jjjjjjjjyhhhhhhhhhhhhhhhhw                                                 whhhhhhhhhhhhhhhjjjjjjjjj",
"jjjjjjjj rhhhhhhhhhhhhhhhhw                                               whhhhhhhhhhhhhhhsjjjjjjjjj",
"jjjjjjjj  whhhhhhhhhhhhhhhhyO                                            whhhhhhhhhhhhhhhs&jjjjjjjjj",
"jjjjjjjj   qhhhhhhhhhhhhhhhhy                                           whhhhhhhhhhhhhhhs% jjjjjjjjj",
"jjjjjjjj    7hhhhhhhhhhhhhhhhiO                                        whhhhhhhhhhhhhhhs%  jjjjjjjjj",
"jjjjjjjj     5hhhhhhhhhhhhhhhhiO                                      whhhhhhhhhhhhhhhs%   jjjjjjjjj",
"jjjjjjjj      1hhhhhhhhhhhhhhhhp@                                    whhhhhhhhhhhhhhhs%    jjjjjjjjj",
"jjjjjjjj       <hhhhhhhhhhhhhhhhp#                                  9hhhhhhhhhhhhhhhs%     jjjjjjjjj",
"jjjjjjjj        ;hhhhhhhhhhhhhhhhs%                                7hhhhhhhhhhhhhhhs&      jjjjjjjjj",
"jjjjjjjj         -ahhhhhhhhhhhhhhha-                              7hhhhhhhhhhhhhhhs-       jjjjjjjjj",
"jjjjjjjj          %shhhhhhhhhhhhhhhd;                            7hhhhhhhhhhhhhhhh;        jjjjjjjjj",
"jjjjjjjj           %phhhhhhhhhhhhhhhh-                          7hhhhhhhhhhhhhhhh-         jjjjjjjjj",
"jjjjjjjj            @phhhhhhhhhhhhhhhh-                        7hhhhhhhhhhhhhhhh;          jjjjjjjjj",
"jjjjjjjj             @ihhhhhhhhhhhhhhhh3                      7hhhhhhhhhhhhhhhs;           jjjjjjjjj",
"jjjjjjjj              oihhhhhhhhhhhhhhhh1                    7hhhhhhhhhhhhhhhh;            jjjjjjjjj",
"jjjjjjjj               Oyhhhhhhhhhhhhhhhh3                  7hhhhhhhhhhhhhhhf;             jjjjjjjjj",
"jjjjjjjj                 thhhhhhhhhhhhhhhh7                7hhhhhhhhhhhhhhhf;              jjjjjjjjj",
"jjjjjjjj                 orhhhhhhhhhhhhhhhh7              7hhhhhhhhhhhhhhhh;               jjjjjjjjj",
"jjjjjjjj                   qhhhhhhhhhhhhhhhh7            7hhhhhhhhhhhhhhhh-                jjjjjjjjj",
"jjjjjjjj                    qhhhhhhhhhhhhhhhhq          7dhhhhhhhhhhhhhhh;                 jjjjjjjjj",
"jjjjjjjj                     8hhhhhhhhhhhhhhhhw        1hhhhhhhhhhhhhhhf-                  jjjjjjjjj",
"jjjjjjjj                      7hhhhhhhhhhhhhhhhq      3hhhhhhhhhhhhhhhh;                   jjjjjjjjj",
"jjjjjjjj                       8hhhhhhhhhhhhhhhhq    3hhhhhhhhhhhhhhhh1                    jjjjjjjjj",
"jjjjjjjj                        3hhhhhhhhhhhhhhhhe  3dhhhhhhhhhhhhhhh1                     jjjjjjjjj",
"jjjjjjjj                         1hhhhhhhhhhhhhhhhq2hhhhhhhhhhhhhhhh1                      jjjjjjjjj",
"jjjjjjjj                          1hhhhhhhhhhhhhhhhhhhhhhhhhhhhhhhh1                       jjjjjjjjj",
"jjjjjjjj                           ;hhhhhhhhhhhhhhhhhhhhhhhhhhhhhh1                        jjjjjjjjj",
"jjjjjjjj                            ;dhhhhhhhhhhhhhhhhhhhhhhhhhhh1                         jjjjjjjjj",
"jjjjjjjj                             ;hhhhhhhhhhhhhhhhhhhhhhhhhh3                          jjjjjjjjj",
"jjjjjjjj                              ;hhhhhhhhhhhhhhhhhhhhhhhd3                           jjjjjjjjj",
"jjjjjjjj                               ;dhhhhhhhhhhhhhhhhhhhhd3                            jjjjjjjjj",
"jjjjjjjj                                ;hhhhhhhhhhhhhhhhhhhh3                             jjjjjjjjj",
"jjjjjjjj                                 -dhhhhhhhhhhhhhhhhh3                              jjjjjjjjj",
"jjjjjjjj                                  2hhhhhhhhhhhhhhhhi                               jjjjjjjjj",
"jjjjjjjj                                 -hhhhhhhhhhhhhhhhhhq                              jjjjjjjjj",
"jjjjjjjj                                -hhhhhhhhhhhhhhhhhhhhq                             jjjjjjjjj",
"jjjjjjjj                               -hhhhhhhhhhhhhhhhhhhhhhqo                           jjjjjjjjj",
"jjjjjjjj                              ;hhhhhhhhhhhhhhhhhhhhhhhhq                           jjjjjjjjj",
"jjjjjjjj                             ;hhhhhhhhhhhhhhhhhhhhhhhhhh9                          jjjjjjjjj",
"jjjjjjjj                            -dhhhhhhhhhhhhhhhhhhhhhhhhhhh7                         jjjjjjjjj",
"jjjjjjjj                           ;hhhhhhhhhhhhhhhhhhhhhhhhhhhhhh7                        jjjjjjjjj",
"jjjjjjjj                          -hhhhhhhhhhhhhhhhdhhhhhhhhhhhhhhh7                       jjjjjjjjj",
"jjjjjjjj                         ;hhhhhhhhhhhhhhhh7%dhhhhhhhhhhhhhhh7                      jjjjjjjjj",
"jjjjjjjj                        ;hhhhhhhhhhhhhhhh7  %dhhhhhhhhhhhhhhh5                     jjjjjjjjj",
"jjjjjjjj                       -hhhhhhhhhhhhhhhh7    -dhhhhhhhhhhhhhhh3                    jjjjjjjjj",
"jjjjjjjj                      %shhhhhhhhhhhhhhh7      -hhhhhhhhhhhhhhhh3                   jjjjjjjjj",
"jjjjjjjj                     %dhhhhhhhhhhhhhhh7       o-hhhhhhhhhhhhhhhh3                  jjjjjjjjj",
"jjjjjjjj                    %shhhhhhhhhhhhhhhq          -hhhhhhhhhhhhhhhh2                 jjjjjjjjj",
"jjjjjjjj                   %shhhhhhhhhhhhhhhw            ;hhhhhhhhhhhhhhhh3                jjjjjjjjj",
"jjjjjjjj                  %shhhhhhhhhhhhhhhw              ;hhhhhhhhhhhhhhhh1               jjjjjjjjj",
"jjjjjjjj                 %shhhhhhhhhhhhhhhw                1hhhhhhhhhhhhhhhh1              jjjjjjjjj",
"jjjjjjjj                %shhhhhhhhhhhhhhhw                  3hhhhhhhhhhhhhhhh-             jjjjjjjjj",
"jjjjjjjj               %shhhhhhhhhhhhhhhw                    1hhhhhhhhhhhhhhhf;            jjjjjjjjj",
"jjjjjjjj              %shhhhhhhhhhhhhhhw                      1hhhhhhhhhhhhhhhh;           jjjjjjjjj",
"jjjjjjjj             %shhhhhhhhhhhhhhhw                        8hhhhhhhhhhhhhhhf;          jjjjjjjjj",
"jjjjjjjj            %ahhhhhhhhhhhhhhhw                          8hhhhhhhhhhhhhhhh;         jjjjjjjjj",
"jjjjjjjj           %shhhhhhhhhhhhhhhw                            7hhhhhhhhhhhhhhhh;        jjjjjjjjj",
"jjjjjjjj          #ahhhhhhhhhhhhhhhw                              8hhhhhhhhhhhhhhhh-       jjjjjjjjj",
"jjjjjjjj         @ahhhhhhhhhhhhhhhw                                whhhhhhhhhhhhhhhh;      jjjjjjjjj",
"jjjjjjjj        @phhhhhhhhhhhhhhhe                                  whhhhhhhhhhhhhhhd%     jjjjjjjjj",
"jjjjjjjj       @phhhhhhhhhhhhhhhy                                    whhhhhhhhhhhhhhhs%    jjjjjjjjj",
"jjjjjjjj      @ahhhhhhhhhhhhhhdy                                      whhhhhhhhhhhhhhhs%   jjjjjjjjj",
"jjjjjjjj     @ahhhhhhhhhhhhhhhy                                        whhhhhhhhhhhhhhhs%  jjjjjjjjj",
"jjjjjjjj    @adhhhhhhhhhhhhhhu                                          ehhhhhhhhhhhhhhhs% jjjjjjjjj",
"jjjjjjjj   #phhhhhhhhhhhhhhhyX                                           yhhhhhhhhhhhhhhhs%jjjjjjjjj",
"jjjjjjjj  @phhhhhhhhhhhhhhhu                                              yhhhhhhhhhhhhhhhsjjjjjjjjj",
"jjjjjjjj @phhhhhhhhhhhhhhhy                                                yhhhhhhhhhhhhhhhjjjjjjjjj",
"jjjjjjjj@phhhhhhhhhhhhhhhy                                                  yhhhhhhhhhhhhhhjjjjjjjjj",
"jjjjjjjjphhhhhhhhhhhhhhhy                                                    uhhhhhhhhhhhhhjjjjjjjjj",
"jjjjjjjjhhhhhhhhhhhhhhhuX                                                    Xyhhhhhhhhhhhhjjjjjjjjj",
"jjjjjjjjhhhhhhhhhhhhhhr                                                        uhhhhhhhhhhhjjjjjjjjj",
"jjjjjjjjhhhhhhhhhhhhhy                                                          idhhhhhhhhhjjjjjjjjj",
"jjjjjjjjhhhhhhhhhhhhiX                                                          Oihhhhhhhhhjjjjjjjjj",
"jjjjjjjjhhhhhhhhhhhiO                                                            Oihhhhhhhhjjjjjjjjj",
"jjjjjjjjhhhhhhhhhhiO                                                              Oihhhhhhhjjjjjjjjj",
"jjjjjjjjhhhhhhhhhiO                                                                Oihhhhhhjjjjjjjjj",
"jjjjjjjjhhhhhhhhiO                                                                  Oihhhhhjjjjjjjjj",
"jjjjjjjjhhhhhhhiO                                                                    oihhhhjjjjjjjjj",
"jjjjjjjjjjjjjjjjjjjjjjjjjjjjjjjjjjjjjjjjjjjjjjjjjjjjjjjjjjjjjjjjjjjjjjjjjjjjjjjjjjjjjjjjjjjjjjjjjjjj",
"jjjjjjjjjjjjjjjjjjjjjjjjjjjjjjjjjjjjjjjjjjjjjjjjjjjjjjjjjjjjjjjjjjjjjjjjjjjjjjjjjjjjjjjjjjjjjjjjjjjj",
"jjjjjjjjjjjjjjjjjjjjjjjjjjjjjjjjjjjjjjjjjjjjjjjjjjjjjjjjjjjjjjjjjjjjjjjjjjjjjjjjjjjjjjjjjjjjjjjjjjjj",
"jjjjjjjjjjjjjjjjjjjjjjjjjjjjjjjjjjjjjjjjjjjjjjjjjjjjjjjjjjjjjjjjjjjjjjjjjjjjjjjjjjjjjjjjjjjjjjjjjjjj",
"jjjjjjjjjjjjjjjjjjjjjjjjjjjjjjjjjjjjjjjjjjjjjjjjjjjjjjjjjjjjjjjjjjjjjjjjjjjjjjjjjjjjjjjjjjjjjjjjjjjj",
"jjjjjjjjjjjjjjjjjjjjjjjjjjjjjjjjjjjjjjjjjjjjjjjjjjjjjjjjjjjjjjjjjjjjjjjjjjjjjjjjjjjjjjjjjjjjjjjjjjjj"
};
